<?xml version="1.0" encoding="utf-8"?>
<!-- Generator: Adobe Illustrator 27.5.0, SVG Export Plug-In . SVG Version: 6.00 Build 0)  -->
<svg version="1.1" xmlns="http://www.w3.org/2000/svg" xmlns:xlink="http://www.w3.org/1999/xlink" x="0px" y="0px"
	 viewBox="0 0 750 500.001" style="enable-background:new 0 0 750 500.001;" xml:space="preserve">
<g id="BACKGROUND">
	<g>
		<rect style="fill:#FFFFFF;" width="750" height="499.999"/>
		<path style="fill:#E8F8FE;" d="M19.991,421.396c0-206.466,158.942-373.84,355.009-373.84s355.009,167.374,355.009,373.84H19.991z"
			/>
		<g>
			<polygon style="fill:#C4EBF6;" points="204.464,181.971 156.262,181.971 156.262,238.602 130.98,238.602 130.98,186.69 
				124.912,186.69 124.912,177.926 118.845,177.926 118.845,167.138 91.203,167.138 91.203,177.926 83.788,177.926 83.788,186.69 
				77.046,186.69 77.046,262.089 28.506,262.089 28.506,418.675 77.046,418.675 95.249,418.675 112.777,418.675 130.98,418.675 
				156.262,418.675 199.746,418.675 204.464,418.675 213.229,418.675 290.285,418.675 290.285,136.801 204.464,136.801 			"/>
			<polygon style="fill:#C4EBF6;" points="680.135,277.03 680.135,199.837 641.033,199.837 641.033,234.555 598.119,234.555 
				598.119,156.352 546.208,156.352 546.208,136.801 519.241,136.801 519.241,119.947 476.768,119.947 476.768,181.971 
				445.755,181.971 445.755,199.837 420.813,199.837 420.813,181.971 403.957,181.971 403.957,157.027 352.461,157.027 
				352.046,108.486 300.135,157.027 300.135,418.675 374.294,418.675 403.957,418.675 414.744,418.675 420.813,418.675 
				515.196,418.675 527.331,418.675 540.141,418.675 546.208,418.675 589.355,418.675 598.119,418.675 641.033,418.675 
				643.963,418.675 669.582,418.675 680.135,418.675 721.493,418.675 721.493,277.03 			"/>
		</g>
		<path style="fill:#80B3C9;" d="M730.009,421.396c0,10.414-158.942,18.857-355.009,18.857S19.991,431.81,19.991,421.396
			C19.991,410.982,730.009,410.982,730.009,421.396z"/>
	</g>
</g>
<g id="OBJECTS">
	<g>
		<path style="fill:#878787;" d="M386.031,412.603c0,0.873,0.706,1.578,1.578,1.578h142.354c0.872,0,1.578-0.705,1.578-1.578V379.55
			c0-0.871-0.706-1.578-1.578-1.578H387.609c-0.872,0-1.578,0.707-1.578,1.578V412.603z"/>
		<g>
			<path style="fill:#C7D3D2;" d="M109.438,363.177c0,0.871,0.705,1.578,1.578,1.578H516.61c0.871,0,1.578-0.707,1.578-1.578
				v-181.47c0-0.872-0.707-1.578-1.578-1.578H111.017c-0.873,0-1.578,0.707-1.578,1.578V363.177z"/>
			<g>
				
					<line style="fill:none;stroke:#DAE5E4;stroke-width:2;stroke-linecap:round;stroke-linejoin:round;stroke-miterlimit:10;" x1="125.221" y1="191.556" x2="125.221" y2="349.556"/>
				
					<line style="fill:none;stroke:#DAE5E4;stroke-width:2;stroke-linecap:round;stroke-linejoin:round;stroke-miterlimit:10;" x1="148.259" y1="191.556" x2="148.259" y2="349.556"/>
				
					<line style="fill:none;stroke:#DAE5E4;stroke-width:2;stroke-linecap:round;stroke-linejoin:round;stroke-miterlimit:10;" x1="171.297" y1="191.556" x2="171.297" y2="349.556"/>
				
					<line style="fill:none;stroke:#DAE5E4;stroke-width:2;stroke-linecap:round;stroke-linejoin:round;stroke-miterlimit:10;" x1="194.335" y1="191.556" x2="194.335" y2="349.556"/>
				
					<line style="fill:none;stroke:#DAE5E4;stroke-width:2;stroke-linecap:round;stroke-linejoin:round;stroke-miterlimit:10;" x1="217.373" y1="191.556" x2="217.373" y2="349.556"/>
				
					<line style="fill:none;stroke:#DAE5E4;stroke-width:2;stroke-linecap:round;stroke-linejoin:round;stroke-miterlimit:10;" x1="240.411" y1="191.556" x2="240.411" y2="349.556"/>
				
					<line style="fill:none;stroke:#DAE5E4;stroke-width:2;stroke-linecap:round;stroke-linejoin:round;stroke-miterlimit:10;" x1="263.449" y1="191.556" x2="263.449" y2="349.556"/>
				
					<line style="fill:none;stroke:#DAE5E4;stroke-width:2;stroke-linecap:round;stroke-linejoin:round;stroke-miterlimit:10;" x1="286.487" y1="191.556" x2="286.487" y2="349.556"/>
				
					<line style="fill:none;stroke:#DAE5E4;stroke-width:2;stroke-linecap:round;stroke-linejoin:round;stroke-miterlimit:10;" x1="309.525" y1="191.556" x2="309.525" y2="349.556"/>
				
					<line style="fill:none;stroke:#DAE5E4;stroke-width:2;stroke-linecap:round;stroke-linejoin:round;stroke-miterlimit:10;" x1="332.564" y1="191.556" x2="332.564" y2="349.556"/>
				
					<line style="fill:none;stroke:#DAE5E4;stroke-width:2;stroke-linecap:round;stroke-linejoin:round;stroke-miterlimit:10;" x1="355.602" y1="191.556" x2="355.602" y2="349.556"/>
				
					<line style="fill:none;stroke:#DAE5E4;stroke-width:2;stroke-linecap:round;stroke-linejoin:round;stroke-miterlimit:10;" x1="378.64" y1="191.556" x2="378.64" y2="349.556"/>
				
					<line style="fill:none;stroke:#DAE5E4;stroke-width:2;stroke-linecap:round;stroke-linejoin:round;stroke-miterlimit:10;" x1="401.678" y1="191.556" x2="401.678" y2="349.556"/>
				
					<line style="fill:none;stroke:#DAE5E4;stroke-width:2;stroke-linecap:round;stroke-linejoin:round;stroke-miterlimit:10;" x1="424.716" y1="191.556" x2="424.716" y2="349.556"/>
				
					<line style="fill:none;stroke:#DAE5E4;stroke-width:2;stroke-linecap:round;stroke-linejoin:round;stroke-miterlimit:10;" x1="447.754" y1="191.556" x2="447.754" y2="349.556"/>
				
					<line style="fill:none;stroke:#DAE5E4;stroke-width:2;stroke-linecap:round;stroke-linejoin:round;stroke-miterlimit:10;" x1="470.792" y1="191.556" x2="470.792" y2="349.556"/>
				
					<line style="fill:none;stroke:#DAE5E4;stroke-width:2;stroke-linecap:round;stroke-linejoin:round;stroke-miterlimit:10;" x1="493.83" y1="191.556" x2="493.83" y2="349.556"/>
			</g>
			<path style="opacity:0.4;fill:#C7D3D2;" d="M109.438,363.177c0,0.871,0.705,1.578,1.578,1.578H516.61
				c0.871,0,1.578-0.707,1.578-1.578v-181.47c0-0.872-0.707-1.578-1.578-1.578L109.438,363.177z"/>
		</g>
		<path style="fill:#5D595D;" d="M119.434,410.292c0,0.873,0.706,1.58,1.578,1.58h34.196c0.873,0,1.578-0.707,1.578-1.58v-26.963
			c0-0.871-0.705-1.578-1.578-1.578h-34.196c-0.872,0-1.578,0.707-1.578,1.578V410.292z"/>
		<path style="fill:#342F35;" d="M119.184,411.042c0,0.873,0.706,1.58,1.578,1.58h2.631c0.872,0,1.578-0.707,1.578-1.58v-35.771
			c0-0.873-0.706-1.58-1.578-1.58h-2.631c-0.872,0-1.578,0.707-1.578,1.58V411.042z"/>
		<path style="fill:#342F35;" d="M258.849,407.136c0,0.873,0.706,1.578,1.578,1.578H296.2c0.873,0,1.578-0.705,1.578-1.578v-18.94
			c0-0.871-0.705-1.578-1.578-1.578h-35.773c-0.872,0-1.578,0.707-1.578,1.578V407.136z"/>
		<path style="fill:#342F35;" d="M102.072,366.628c0,0.873,0.706,1.578,1.578,1.578h417.065c0.871,0,1.578-0.705,1.578-1.578v-3.746
			c0-0.873-0.707-1.578-1.578-1.578H103.65c-0.872,0-1.578,0.705-1.578,1.578V366.628z"/>
		<polygon style="fill:#342F35;" points="536.512,413.546 604.223,420.603 626.306,346.216 518.188,346.216 		"/>
		<path style="fill:#EF433A;" d="M641.407,420.603c-8.937,0-38.101,0-38.101,0s6.116-54.565-32.927-54.565
			c-39.042,0-33.868,47.508-33.868,47.508h-28.693c0,0,0-157.109,0-181.567c0-6.114,60.21-2.35,66.795,13.172
			c0,0,31.521,1.864,37.16,3.763c11.304,3.807,28.313,61.764,31.348,83.719C645.887,352.647,647.053,420.603,641.407,420.603z"/>
		<path style="fill:#DB4233;" d="M641.407,420.603c-8.937,0-38.101,0-38.101,0s6.116-54.565-32.927-54.565
			c-39.042,0-33.868,47.508-33.868,47.508h-28.693c0,0,0-157.109,0-181.567L641.407,420.603z"/>
		<path style="fill:#EF433A;" d="M507.818,231.979c0-6.114,60.21-2.35,66.795,13.172h-66.795
			C507.818,239.32,507.818,234.775,507.818,231.979z"/>
		<g>
			<g>
				<path style="fill:#A81A13;" d="M603.232,381.159c0-5.268-7.29-20.416-23.764-20.416c-0.327,0-0.592-0.266-0.592-0.592
					l-0.172-55.74c0-0.186,0.087-0.359,0.233-0.471c0.148-0.113,0.341-0.146,0.518-0.1l46.417,12.924
					c0.256,0.07,0.433,0.305,0.433,0.57v63.824c0,0.326-0.265,0.592-0.592,0.592h-21.89
					C603.497,381.751,603.232,381.485,603.232,381.159z M625.122,317.784L579.89,305.19l0.172,54.377
					c16.31,0.396,23.832,14.932,24.328,21h20.732V317.784z"/>
			</g>
			<g>
				<path style="fill:#A81A13;" d="M510.272,245.743h62.117c0.326,0,0.592-0.265,0.592-0.592c0-0.327-0.266-0.592-0.592-0.592
					h-62.117c-0.326,0-0.592,0.265-0.592,0.592C509.681,245.478,509.946,245.743,510.272,245.743z"/>
			</g>
		</g>
		<g>
			<g>
				<path style="fill:#4EBBE5;" d="M613.722,274.554c1.341,0.361,13.326,40.408,13.326,42.781c0,2.373-49.06-9.232-49.06-10.023
					c0-0.791-0.805-29.19-0.247-30.772C578.297,274.958,611.77,274.026,613.722,274.554z"/>
				<path style="opacity:0.5;fill:#BDECFE;" d="M600.176,274.575l-22.238,30.576c0.03,1.248,0.05,2.037,0.05,2.16
					c0,0.119,1.116,0.484,3.003,1.008l24.639-33.875C603.943,274.472,602.099,274.517,600.176,274.575z"/>
				<path style="opacity:0.5;fill:#BDECFE;" d="M601.505,313.286c4.233,0.939,8.504,1.842,12.312,2.582l9.396-12.92
					c-1.303-4.434-2.783-9.311-4.186-13.754L601.505,313.286z"/>
				<path style="fill:#342F35;" d="M582.44,303.819c-1.953-3.178-3.117-20.184-3.546-27.744c-0.679,0.148-1.097,0.303-1.153,0.465
					c-0.558,1.582,0.247,29.98,0.247,30.772c0,0.791,49.06,12.396,49.06,10.023c0-0.23-0.113-0.818-0.318-1.684
					C618.972,314.175,584.679,307.466,582.44,303.819z"/>
			</g>
			<g>
				<path style="fill:#4EBBE5;" d="M570.022,277.099c0.781,0.772,1.198,26.258-0.12,27.313c-1.319,1.055-15.296-1.648-17.347-2.23
					c-1.268-0.361-9.391-22.297-8.6-23.879C544.747,276.72,568.591,275.681,570.022,277.099z"/>
				<path style="opacity:0.5;fill:#BDECFE;" d="M570.022,277.099c-0.541-0.537-4.282-0.721-8.769-0.658l-12.613,17.342
					c1.732,4.496,3.397,8.252,3.916,8.398c0.534,0.152,1.88,0.447,3.596,0.783l14.437-19.85
					C570.456,279.776,570.256,277.329,570.022,277.099z"/>
				<path style="fill:#342F35;" d="M554.032,298.9c-3.062-3.48-7.629-15.955-9.395-20.986c-0.37,0.125-0.614,0.254-0.682,0.389
					c-0.791,1.582,7.331,23.518,8.6,23.879c2.051,0.582,16.027,3.285,17.347,2.23c0.161-0.129,0.297-0.629,0.408-1.4
					C565.8,302.854,556.877,302.136,554.032,298.9z"/>
			</g>
			<g>
				<path style="fill:#4EBBE5;" d="M618.657,274.554c0.34-0.854,4.939-0.91,8.158-0.844c5.734,14.742,11.023,33.141,14.074,46.979
					c-2.664-0.391-7.216-1.197-8.318-2.299C630.989,316.808,618.13,275.872,618.657,274.554z"/>
				<path style="opacity:0.5;fill:#BDECFE;" d="M628.007,276.847l-6.456,8.877c1.239,4.164,2.741,9.014,4.237,13.684l6.775-9.316
					C631.114,285.556,629.583,281.083,628.007,276.847z"/>
				<path style="fill:#342F35;" d="M635.696,315.202c-2.389-3.039-11.302-28.037-15.896-41.186
					c-0.623,0.129-1.049,0.301-1.143,0.537c-0.527,1.318,12.332,42.254,13.914,43.836c1.103,1.102,5.654,1.908,8.318,2.299
					c-0.227-1.027-0.47-2.09-0.721-3.164C637.826,316.646,636.203,315.847,635.696,315.202z"/>
			</g>
		</g>
		<path style="fill:#342F35;" d="M583.746,339.306c0,0.873,0.706,1.578,1.578,1.578h6.479c0.871,0,1.578-0.705,1.578-1.578v-0.973
			c0-0.873-0.707-1.578-1.578-1.578h-6.479c-0.872,0-1.578,0.705-1.578,1.578V339.306z"/>
		<g>
			<path style="fill:#FFC001;" d="M638.636,392.13c0,0.873,0.706,1.578,1.578,1.578h6.135c0.871,0,1.578-0.705,1.578-1.578v-27.814
				c0-0.873-0.707-1.578-1.578-1.578h-6.135c-0.872,0-1.578,0.705-1.578,1.578V392.13z"/>
			<path style="fill:#EE842C;" d="M640.214,362.737h0.563v26.123c0,0.871,0.706,1.578,1.578,1.578h5.572v1.691
				c0,0.873-0.707,1.578-1.578,1.578h-6.135c-0.872,0-1.578-0.705-1.578-1.578v-27.814
				C638.636,363.442,639.342,362.737,640.214,362.737z"/>
		</g>
		<path style="fill:#342F35;" d="M391.425,381.829c0,0.873,0.705,1.58,1.578,1.58h36.299c0.872,0,1.578-0.707,1.578-1.58v-15.496
			c0-0.871-0.706-1.578-1.578-1.578h-36.299c-0.873,0-1.578,0.707-1.578,1.578V381.829z"/>
		<path style="fill:#878787;" d="M137.321,389.22c0,0.873,0.706,1.578,1.578,1.578h165.72c0.872,0,1.578-0.705,1.578-1.578v-22.887
			c0-0.871-0.706-1.578-1.578-1.578H138.9c-0.872,0-1.578,0.707-1.578,1.578V389.22z"/>
		<polygon style="fill:#342F35;" points="236.764,420.603 169.054,413.546 174.305,381.37 203.755,368.206 226.665,376.064 		"/>
		<g>
			<g>
				<path style="fill:#C7D3D2;" d="M236.998,410.753c-2.762,0-5-2.238-5-5c0-18.537-12.4-31.992-29.484-31.992
					c-14.676,0-29.484,9.893-29.484,31.992c0,2.762-2.239,5-5,5c-2.762,0-5-2.238-5-5c0-24.725,16.236-41.992,39.484-41.992
					c22.879,0,39.484,17.66,39.484,41.992C241.998,408.515,239.759,410.753,236.998,410.753z"/>
			</g>
			<g style="opacity:0.6;">
				<path style="fill:#C7D3D2;" d="M167.947,410.753c2.062,0,4.939-1.383,5-5c0-22.1,14.809-31.992,29.485-31.992
					c17.084,0,29.483,13.455,29.483,31.992c0,2.762,2.239,5,5,5c0,0,3.037-25.254-15.893-37.643
					C202.094,360.724,167.099,366.759,167.947,410.753z"/>
			</g>
		</g>
		<g>
			<path style="fill:#5D595D;" d="M174.305,402.616c0,15.578,12.629,28.209,28.209,28.209c15.579,0,28.208-12.631,28.208-28.209
				c0-15.58-12.629-28.209-28.208-28.209C186.934,374.407,174.305,387.036,174.305,402.616z"/>
			<g>
				<path style="fill:#342F35;" d="M190.696,402.616c0,6.525,5.291,11.816,11.817,11.816c6.525,0,11.816-5.291,11.816-11.816
					c0-6.525-5.291-11.818-11.816-11.818C195.987,390.798,190.696,396.091,190.696,402.616z"/>
				<path style="fill:#484149;" d="M202.514,390.798c-2.416,0-4.661,0.728-6.533,1.975c0.863-0.201,1.759-0.318,2.683-0.318
					c6.525,0,11.816,5.293,11.816,11.818c0,4.109-2.1,7.727-5.283,9.844c5.231-1.217,9.134-5.898,9.134-11.5
					C214.33,396.091,209.039,390.798,202.514,390.798z"/>
			</g>
		</g>
		<path style="fill:#342F35;" d="M538.759,413.532c0,0.553-0.447,1-1,1h-154.75c-0.553,0-1-0.447-1-1v-3.477c0-0.553,0.447-1,1-1
			h154.75c0.553,0,1,0.447,1,1V413.532z"/>
		<path style="fill:#5D595D;" d="M645.422,420.396c0,0.553-0.448,1-1,1h-41.417c-0.553,0-1-0.447-1-1v-4.863c0-0.553,0.447-1,1-1
			h41.417c0.552,0,1,0.447,1,1V420.396z"/>
		<g>
			<g>
				<path style="fill:#C7D3D2;" d="M604.456,410.114c-2.761,0-5-2.238-5-5c0-18.537-12.399-31.992-29.483-31.992
					c-14.677,0-29.485,9.893-29.485,31.992c0,2.762-2.238,5-5,5c-2.761,0-5-2.238-5-5c0-24.725,16.237-41.992,39.485-41.992
					c22.878,0,39.483,17.66,39.483,41.992C609.456,407.876,607.218,410.114,604.456,410.114z"/>
			</g>
			<g style="opacity:0.6;">
				<path style="fill:#C7D3D2;" d="M535.487,410.114c2.061,0,4.938-1.383,5-5c0-22.1,14.808-31.992,29.485-31.992
					c17.084,0,29.483,13.455,29.483,31.992c0,2.762,2.239,5,5,5c0,0,3.037-25.254-15.893-37.643
					C569.634,360.085,534.639,366.12,535.487,410.114z"/>
			</g>
		</g>
		<g>
			
				<ellipse transform="matrix(0.3894 -0.9211 0.9211 0.3894 -22.7932 770.8517)" style="fill:#5D595D;" cx="569.972" cy="402.616" rx="28.209" ry="28.209"/>
			<g>
				<path style="fill:#342F35;" d="M558.154,402.616c0,6.525,5.29,11.816,11.817,11.816c6.526,0,11.816-5.291,11.816-11.816
					c0-6.525-5.29-11.818-11.816-11.818C563.444,390.798,558.154,396.091,558.154,402.616z"/>
				<path style="fill:#484149;" d="M581.788,402.616c0-6.525-5.29-11.818-11.816-11.818c-2.417,0-4.662,0.728-6.534,1.975
					c0.863-0.201,1.759-0.318,2.684-0.318c6.526,0,11.816,5.293,11.816,11.818c0,4.109-2.1,7.727-5.283,9.844
					C577.886,412.9,581.788,408.218,581.788,402.616z"/>
			</g>
		</g>
		<path style="fill:#5D595D;" d="M434.214,414.511c0,0.873,0.706,1.578,1.578,1.578h89.719c0.871,0,1.578-0.705,1.578-1.578v-36.869
			c0-0.871-0.707-1.578-1.578-1.578h-89.719c-0.872,0-1.578,0.707-1.578,1.578V414.511z"/>
		<g>
			<path style="fill:#342F35;" d="M513.376,416.9c0,0.371-0.301,0.674-0.672,0.674l0,0c-0.373,0-0.674-0.303-0.674-0.674v-41.645
				c0-0.371,0.301-0.674,0.674-0.674l0,0c0.371,0,0.672,0.303,0.672,0.674V416.9z"/>
			<path style="fill:#342F35;" d="M449.272,416.9c0,0.371-0.301,0.674-0.673,0.674l0,0c-0.372,0-0.673-0.303-0.673-0.674v-41.645
				c0-0.371,0.301-0.674,0.673-0.674l0,0c0.372,0,0.673,0.303,0.673,0.674V416.9z"/>
		</g>
	</g>
</g>
</svg>
